<?xml version="1.0" encoding="UTF-8"?>
<svg width="1920px" height="761px" viewBox="0 0 1920 761" version="1.1" xmlns="http://www.w3.org/2000/svg" xmlns:xlink="http://www.w3.org/1999/xlink">
    <!-- Generator: Sketch 42 (36781) - http://www.bohemiancoding.com/sketch -->
    <title>bg-mountains</title>
    <desc>Created with Sketch.</desc>
    <defs></defs>
    <g id="Home" stroke="none" stroke-width="1" fill="none" fill-rule="evenodd" opacity="0.05">
        <g id="Home---Desktop" transform="translate(0.000000, -4430.000000)" fill="#000000">
            <g id="SCT---Awards" transform="translate(-0.000000, 4371.000000)">
                <g id="Background">
                    <g id="bg-mountains" transform="translate(-384.000000, 59.000000)">
                        <path d="M2451.70252,387.398193 C2429.17584,379.856401 2408.10977,372.811374 2385.61822,365.284636 C2384.13752,369.409289 2381.52748,376.705207 2378.9074,383.996107 C2371.93557,373.077319 2372.25681,361.069663 2367.54367,351.545831 C2363.42783,343.226276 2354.62897,334.776258 2346.05598,331.906062 C2339.66137,329.773487 2323.77022,335.729645 2323.3737,339.327426 C2321.06983,360.171472 2316.58758,383.358843 2323.26829,402.030171 C2334.19032,432.55862 2381.34678,449.278014 2416.10052,441.329779 C2434.11986,437.205127 2454.40794,436.246722 2444.01795,407.620029 C2442.17586,402.536971 2448.87163,394.357916 2451.70252,387.398193 M2110.39412,651.66698 C2077.05081,652.163745 2046.21214,659.595144 2022.31016,680.720189 C2031.03373,704.063112 2038.89899,725.112889 2046.76426,746.157649 C2044.13916,747.949012 2041.51406,749.750412 2038.88895,751.546793 C2030.58199,744.672373 2020.14181,739.238068 2014.3445,730.667622 C1992.08886,697.735635 1980.69,692.165848 1941.2683,700.430207 C1924.95552,703.842328 1908.86862,708.333282 1892.60102,712.00633 C1889.58441,712.688754 1886.22147,711.825688 1882.46702,708.187765 C1910.36939,702.171392 1938.593,697.304102 1966.08379,689.76231 C1985.95024,684.312952 2005.36997,676.434966 2024.07696,667.678861 C2070.04886,646.17748 2117.80263,632.012159 2167.41354,620.556463 C2215.72444,609.401838 2261.93728,588.602952 2308.4061,570.343086 C2328.16212,562.575492 2346.2166,550.492569 2365.47069,540.140795 C2338.48183,503.831811 2336.05249,503.831811 2290.71803,539.493496 C2289.6188,527.064342 2288.15818,516.89321 2287.91223,506.686954 C2287.12922,473.785073 2278.42071,444.355528 2254.49363,420.179645 C2237.29244,402.802916 2255.35194,386.314342 2257.967,369.584913 C2259.33225,360.853897 2263.96508,352.629681 2268.11606,341.515198 C2270.26432,342.493674 2275.77553,345.855617 2281.75855,347.496446 C2289.64892,349.659128 2297.91071,350.48707 2306.0169,351.887043 C2305.99181,340.973273 2310.40379,326.060296 2304.96787,320.023852 C2295.3358,309.340902 2279.71067,304.052114 2268.78362,297.764779 C2268.94926,297.749725 2274.42533,295.511775 2277.5875,297.32321 C2309.67598,315.683433 2349.05753,316.70707 2378.38539,343.05567 C2395.35067,358.304841 2413.45032,372.685929 2441.24227,373.890207 C2464.11027,374.873701 2486.33078,390.805296 2513.01848,401.834476 C2482.81726,400.770697 2465.73653,417.680768 2463.34232,441.545545 C2476.24196,450.502364 2486.26051,459.589645 2497.99567,464.888469 C2506.17213,468.586606 2518.66019,470.924913 2525.81271,467.246847 C2551.5618,454.009824 2575.60934,437.506196 2600.81634,423.155216 C2615.00594,415.076517 2629.99362,408.257292 2645.0365,401.839494 C2659.50217,395.662551 2675.68946,392.742176 2689.02076,384.849137 C2716.97835,368.305367 2731.75521,372.47518 2746.73787,400.966392 C2753.17765,413.19985 2765.08848,422.492863 2774.16842,433.406633 C2782.59083,443.527586 2790.55649,454.014841 2798.72291,464.346544 L2766.38346,481.17633 C2746.85833,493.44993 2788.20243,521.700287 2752.95178,534.701472 C2736.75947,485.938246 2720.81812,437.922676 2704.96211,390.168032 C2673.17478,400.43952 2644.73534,408.914627 2616.9183,419.095795 C2609.78083,421.710082 2604.61094,429.69846 2596.19857,437.33559 C2628.39245,452.589779 2621.11445,464.527185 2598.02058,480.820064 C2587.21399,488.447159 2583.83599,506.601651 2572.18616,518.243005 C2571.01666,500.444779 2569.84716,482.65157 2568.20585,457.723014 C2548.38457,468.9228 2533.49226,474.748496 2522.37448,484.754039 C2517.09918,489.500902 2515.36752,503.771597 2518.41926,511.047444 C2525.68221,528.318799 2522.08336,541.495608 2504.55089,554.637292 C2504.55089,544.807373 2505.18835,534.927275 2504.43545,525.162586 C2502.1617,495.788237 2485.53773,486.615652 2460.34578,501.498522 C2447.45116,509.115581 2435.28434,518.283148 2424.04108,528.168264 C2420.10092,531.625545 2418.53489,539.257658 2418.23875,545.098406 C2417.46076,560.442916 2417.97273,575.862693 2417.97273,591.247346 C2413.72137,591.69895 2409.46499,592.150554 2405.20359,592.602159 C2402.0615,576.324333 2398.91439,560.051526 2394.91901,539.41321 C2367.78961,535.027631 2363.64868,569.87141 2342.1108,577.563736 C2366.76066,623.466802 2365.95756,641.089405 2339.47064,661.813023 C2338.71272,660.52846 2337.08144,659.013077 2337.35249,658.024565 C2349.21313,614.84116 2347.02973,610.696437 2302.73427,612.563068 C2272.08131,613.852649 2241.5689,619.046098 2211.05648,622.970037 C2189.59389,625.729841 2167.96566,628.098255 2146.95983,633.00067 C2136.38915,635.46944 2127.03817,643.196891 2117.15012,648.53084 C2114.90648,649.569529 2112.64779,650.618255 2110.39412,651.66698" id="Fill-1"></path>
                        <path d="M1052.82342,146.155201 C1048.1404,161.750602 1042.81993,179.473561 1037.49946,197.191503 C1039.43691,198.440941 1041.37437,199.685362 1043.3068,200.929783 C1052.04041,194.426681 1060.769,187.918561 1069.06091,181.746636 C1071.81651,203.915389 1074.52192,225.652608 1077.98023,253.421253 C1085.43391,245.101699 1095.7737,238.789275 1097.17409,230.891217 C1099.98491,215.019836 1098.49417,198.240228 1097.40498,181.927278 C1097.17911,178.515157 1091.27138,175.193357 1087.58218,172.353267 C1075.63119,163.145558 1063.49449,154.173686 1052.82342,146.155201 L1052.82342,146.155201 Z M1184.36462,220.775282 C1174.68738,253.391146 1150.59466,281.501004 1120.80503,292.615487 C1147.54794,330.454907 1184.68083,363.30661 1178.72792,416.179435 C1165.42172,375.00316 1152.42169,333.696422 1113.99884,310.624462 C1111.22316,298.978089 1108.30693,286.759684 1105.39071,274.516191 C1076.24355,292.108686 1051.43307,307.086895 1023.38012,324.017037 C1036.08903,288.495852 1047.92457,255.408312 1061.41147,217.70939 C1028.56507,230.053241 1032.08863,257.480674 1023.2446,277.326173 C1003.36811,223.715727 1030.04075,173.20128 1032.24925,122.721957 C1024.58476,120.323437 1018.22529,119.043891 1012.54342,116.354337 C1006.15383,113.333606 996.612115,104.662804 994.980838,106.067795 C988.566153,111.567332 982.061121,119.550692 980.515172,127.569176 C977.689297,142.191119 979.094705,157.575772 977.347984,172.483731 C975.972691,184.260567 972.524422,195.801565 964.76958,206.589889 C964.091973,198.566387 965.366879,189.679818 962.274981,182.73013 C957.772655,172.614194 951.533646,162.046654 943.045984,155.598749 C940.109685,153.365816 927.380702,161.730531 920.669878,167.164836 C904.01579,180.667804 888.245102,195.269676 867.460119,213.529542 C890.247809,256.91366 945.846762,287.427055 942.247913,350.741975 C934.101565,334.674898 927.651745,318.54259 918.260607,304.35218 C907.800354,288.54603 895.834307,273.326966 882.357446,260.044783 C869.829235,247.695914 854.455073,238.242332 835.165845,223.590282 C840.948096,234.283267 842.90061,243.511048 848.547339,247.465094 C904.412316,286.60915 921.67876,346.356396 938.071843,411.553 C913.602682,370.005406 894.469053,329.682162 868.062436,294.86849 C841.264313,259.532964 808.417915,228.036075 760.639055,217.975335 C768.228259,235.893989 775.651826,253.411217 783.070374,270.928446 C781.303575,272.478954 779.541795,274.024444 777.774997,275.574952 C764.212807,263.416761 751.00197,250.827037 736.922791,239.296075 C730.764091,234.248143 722.838593,231.352857 715.716185,227.484114 C717.663679,235.788615 717.347462,245.69882 721.915039,252.146725 C753.230546,296.318642 786.162272,339.351512 817.24689,383.67898 C827.285521,397.994836 833.338815,415.10562 841.21412,430.936859 C838.689404,432.291672 836.15967,433.651503 833.634954,435.006316 C821.478173,415.772991 811.193596,394.949016 796.597428,377.788053 C784.154546,363.151057 778.573068,332.176021 746.344045,348.473918 C743.944813,349.69325 736.701941,341.328535 730.237063,336.265549 C724.484928,342.688365 718.642445,349.211538 712.072162,356.552617 C691.442777,340.540736 679.792947,322.607029 693.641237,298.401039 C685.936588,289.268597 672.354322,279.01718 674.070927,274.169961 C680.179434,256.883553 687.803774,236.295415 701.616929,226.38521 C728.972196,206.780567 760.618978,196.754952 792.933328,221.046244 C805.52177,230.509863 817.83415,228.30202 831.506765,218.160995 C869.954718,189.624622 910.264838,163.612216 948.93866,135.366877 C960.136752,127.182804 967.856459,114.377314 978.015553,104.567465 C982.537956,100.196939 991.788553,93.8042299 994.398597,95.4550945 C1017.49247,110.031877 1051.04157,109.068455 1062.88715,140.725914 C1065.13079,146.717198 1068.73967,155.66398 1073.29721,156.77292 C1104.78839,164.465246 1119.84634,187.110692 1129.03169,215.175389 C1130.78343,220.539444 1128.95138,227.589488 1127.295,233.445291 C1124.81044,242.251574 1119.34441,250.510914 1118.3807,259.35734 C1117.72819,265.353642 1121.08611,273.793624 1125.62357,277.5871 C1128.28381,279.820032 1138.88962,276.974925 1142.27264,273.171414 C1157.12981,256.462055 1170.65185,238.573508 1184.66075,221.111476 L1184.36462,220.775282 Z" id="Fill-3"></path>
                        <path d="M1605.94793,205.555716 C1601.14445,207.502632 1592.23516,209.253853 1592.13478,211.416536 C1590.21238,253.340466 1561.77294,281.124165 1537.52965,309.796019 C1520.97595,329.380591 1504.34696,349.903496 1475.99285,358.63953 C1459.95613,363.57707 1446.96615,382.524379 1435.95879,397.602944 C1431.57693,403.614299 1433.29353,417.744495 1437.33408,425.527142 C1448.53719,447.093755 1470.11523,454.841277 1492.51643,460.285618 C1479.04961,443.867293 1465.57275,427.453987 1450.89627,409.560422 C1462.92757,407.9497 1471.62102,406.785564 1478.372,405.882356 C1516.79988,456.928693 1555.11733,507.829512 1593.4398,558.73535 C1593.27416,559.171901 1593.09347,559.608452 1592.92783,560.039985 C1579.03938,546.777873 1566.02932,532.406821 1551.04666,520.519593 C1528.71573,502.791616 1505.17012,486.589058 1481.82529,470.170734 C1462.53104,456.602534 1442.78004,443.671598 1423.1244,430.384397 C1375.28531,469.016634 1324.81107,509.776429 1274.33684,550.541242 C1273.07699,549.256678 1271.82217,547.972115 1270.56232,546.682534 C1287.78359,531.498594 1309.2512,519.04937 1321.24736,500.483416 C1339.97443,471.510493 1374.56755,466.377258 1395.46295,442.989174 C1408.09155,428.863996 1417.23674,411.602676 1427.69198,395.585778 C1442.80011,372.448586 1459.80053,352.598069 1486.68399,340.956714 C1500.99405,334.769735 1513.15585,321.176447 1523.43039,308.591741 C1546.6397,280.16576 1568.07218,250.289628 1588.37029,223.454299 C1565.41194,203.342855 1547.9899,188.088666 1530.59797,172.819423 C1532.36477,189.112302 1534.10648,205.425252 1535.98872,222.987641 C1504.77862,214.587801 1505.79754,240.088389 1496.64733,254.976277 C1486.02144,272.247632 1474.20095,288.786384 1459.08779,302.138817 C1479.29054,260.129584 1499.48324,218.125368 1520.73,173.938398 C1481.43378,167.595867 1463.299,140.032953 1445.65109,108.591259 C1428.31939,77.7065446 1404.54289,50.3895036 1383.10038,21.883238 C1372.01773,7.14588503 1364.96058,19.7305909 1357.40651,26.7555463 C1357.42156,26.7404929 1357.14048,27.1519545 1357.14048,27.1519545 C1350.67059,40.9108316 1344.29104,54.7198868 1337.69566,68.4285856 C1333.1582,77.8470437 1328.31456,87.1199848 1318.90334,95.6151631 L1316.75005,71.1833717 C1314.5265,70.1697709 1312.31298,69.1461346 1310.08942,68.1325339 C1303.89057,80.882828 1298.5701,94.1599938 1291.27703,106.247935 C1281.78049,121.993871 1271.20479,137.157739 1260.16732,151.885056 C1251.77,163.094878 1242.94103,174.369931 1232.49583,183.567605 C1217.30738,196.935092 1200.48766,208.466054 1184.36562,220.779798 C1184.36562,220.77478 1184.66176,221.110974 1184.66176,221.110974 C1212.25795,192.524423 1240.01477,164.088407 1267.31984,135.225876 C1272.3241,129.93207 1278.27199,123.223238 1279.055,116.604726 C1285.81602,59.4968565 1338.21767,40.0979439 1369.78414,0.000501782532 C1378.26678,7.63763191 1385.42432,12.143639 1389.98186,18.5112594 C1413.6128,51.5235321 1436.56613,85.017516 1459.7905,118.310787 C1466.41599,127.819566 1471.67121,139.014334 1480.23417,146.27011 C1493.80639,157.76093 1508.77901,171.544896 1527.60144,153.4456 C1542.65939,169.718407 1556.67834,184.87224 1572.00732,201.451135 C1580.43475,195.580279 1587.68264,190.522311 1594.85023,185.524557 C1609.02477,195.36953 1624.32866,203.919905 1636.99742,215.380618 C1650.29358,227.403327 1664.06658,240.625297 1672.33841,256.14543 C1692.50602,294.014958 1692.24,298.169717 1730.29142,287.627266 C1765.6776,277.827454 1789.83054,288.806455 1812.1414,313.238247 C1813.81785,315.074771 1815.74024,316.765778 1817.81322,318.130627 C1819.08311,318.973621 1820.85493,319.058924 1822.4059,319.455332 C1851.49283,262.322373 1851.88935,260.330297 1849.29437,199.188095 C1857.81716,211.341268 1871.17356,222.561126 1873.75349,235.863381 C1877.89944,257.249352 1891.51684,264.459967 1908.18599,270.416126 C1931.50573,278.745716 1936.39454,288.314709 1923.88139,308.672026 C1914.01843,324.714013 1915.71998,338.35748 1926.49645,352.462587 C1930.84318,358.147783 1934.51732,364.349816 1936.89145,372.533889 C1891.31607,343.811857 1830.04027,356.908381 1790.76413,307.061304 C1768.78957,279.182266 1729.94007,290.668069 1698.23808,308.160208 C1667.24883,276.557944 1661.04495,222.94248 1610.23443,210.312614 C1608.80894,208.726981 1607.37844,207.141348 1605.94793,205.555716" id="Fill-5"></path>
                        <path d="M369.684101,349.245158 C378.487979,335.320693 385.058263,319.032832 396.652881,308.038776 C412.383414,293.130817 431.913569,282.217047 449.912833,269.717644 C456.769217,264.965764 463.675795,260.218901 470.918667,256.104284 C504.939584,236.795693 504.357344,237.658758 530.603342,265.467546 C541.108769,276.597083 556.001077,283.591931 568.263263,295.112858 C559.072898,291.364543 550.058208,285.478634 540.621895,284.710906 C535.467059,284.289409 524.459701,293.221138 524.936536,296.748669 C527.220324,313.723972 536.837332,330.598919 535.667831,346.926922 C534.151998,368.072038 530.909521,394.465799 517.643471,408.224676 C493.816782,432.937466 504.60329,458.337698 507.499435,485.654739 C510.576275,478.65989 514.601766,471.915933 516.584395,464.625033 C528.806428,419.710479 549.60145,381.580024 592.044778,357.343928 C607.695003,348.402163 620.293484,334.121432 635.537144,321.215586 C638.081936,327.322279 641.239086,338.0253 646.740255,347.34842 C654.555328,360.595479 662.445692,374.540015 673.342625,385.037306 C685.695159,396.939587 689.218718,406.884917 683.571989,424.04588 C676.805952,444.613946 675.410583,466.943268 670.426403,495.825871 C653.747219,445.431851 638.518617,399.418393 623.264918,353.319632 C588.280292,360.931673 560.894909,390.391325 558.234672,423.58424 C556.372506,446.821789 569.528131,456.009427 600.155992,446.902074 C574.783354,497.923322 616.473785,535.356299 619.640973,580.245764 C619.927074,584.300167 620.589623,588.324463 621.071478,592.36883 C618.802747,593.437627 616.528997,594.506423 614.255248,595.57522 C588.159829,546.275086 562.069429,496.974953 535.577484,446.922145 C526.577852,466.145434 522.100623,487.641798 509.110635,500.653019 C490.09245,519.710719 464.840276,532.496138 442.494285,548.312324 C407.906185,572.794293 373.599166,597.682707 339.006047,622.159659 C330.177072,628.406851 320.745779,633.821085 311.35464,639.205211 C311.113713,639.34571 308.13224,634.734329 306.430692,632.330791 L306.099417,632.646914 C319.099443,623.875755 332.345416,615.440791 345.06436,606.278242 C377.122726,583.171156 409.100782,559.943643 440.807795,536.364881 C455.956088,525.094846 470.421754,512.896512 485.193599,501.124694 C483.768113,480.822573 482.322551,460.52547 480.927181,440.218331 C480.430269,433.037823 476.97698,423.875274 480.114052,418.972858 C507.890942,375.588741 498.821039,333.990969 475.400915,291.083545 C478.859223,290.521548 482.432975,290.943045 484.581242,289.38752 C490.067354,285.423438 494.916012,280.581236 500.015636,276.090283 C493.119097,272.341967 483.637611,263.631022 479.752661,265.653206 C455.810528,278.132537 428.60584,289.011183 428.279585,324.893652 C419.606209,325.330202 411.424725,325.736646 399.227789,326.348821 C392.91851,331.231165 381.303815,340.238161 369.684101,349.245158" id="Fill-7"></path>
                        <path d="M306.430692,632.330791 C299.268129,628.356673 292.37159,623.745291 284.867714,620.584061 C277.649939,617.553295 269.834866,615.877341 262.200487,613.915372 C259.163802,613.137609 254.566109,614.437225 252.954909,612.691022 C231.69309,589.634115 212.519307,596.332912 190.449378,618.74252 C216.108117,585.278643 211.726255,552.291459 201.888397,519.254097 C183.84396,524.005978 165.824618,528.757858 147.800258,533.509739 C146.158942,531.502609 144.517626,529.500496 142.87129,527.493366 C174.954753,500.592805 207.038215,473.687225 239.809323,446.209614 L224.103886,446.209614 C225.323579,443.239061 225.639796,441.548054 226.578408,440.338758 C242.680371,419.600086 259.24913,399.207644 274.583138,377.922029 C276.776578,374.871192 274.412481,366.662029 271.581587,362.652787 C270.136025,360.610532 262.049908,361.00694 258.541407,363.029124 C227.793082,380.762119 197.732404,399.704409 166.808404,417.116263 C134.66471,435.220577 101.793216,452.015238 69.7147731,469.13104 C64.329048,431.908812 68.901644,424.256628 104.754612,416.258215 C158.63194,404.240523 207.645552,380.917671 254.249892,352.250835 C280.751876,335.947921 305.587447,344.919792 329.911048,355.79342 C342.218409,361.292956 352.673642,366.195372 363.716135,354.955443 C373.689514,369.833295 381.620032,386.798562 394.128165,399.122341 C419.556015,424.191397 456.041417,438.030559 470.045306,474.705844 C453.757628,460.681022 437.505086,446.61104 421.167216,432.646432 C402.319687,416.534195 384.817336,398.299418 364.1227,385.067413 C341.862037,370.831842 320.841146,348.718286 288.622162,357.419195 C296.763491,369.858384 303.890918,380.757101 311.018346,391.655817 L311.374717,391.324641 C306.857334,403.603259 296.873916,416.930603 298.987048,427.939712 C303.163118,449.681949 294.665417,462.246584 280.561142,475.849908 C273.443753,482.719311 267.259957,493.793652 266.587369,503.377698 C265.377714,520.593857 270.728304,538.261619 269.593938,555.492832 C267.415556,588.650621 291.578539,608.10473 306.099417,632.641896 L306.430692,632.330791 Z" id="Fill-9"></path>
                        <path d="M1953.64844,239.994556 C1982.10293,255.90608 2010.40685,272.088567 2039.13239,287.488273 C2044.68375,290.463843 2052.62431,289.023727 2058.09536,292.074565 C2063.63167,295.15551 2067.4865,301.277257 2072.07416,306.06928 C2066.15136,307.91584 2060.3139,310.158807 2054.26563,311.393193 C2052.2579,311.804654 2049.75828,308.869226 2047.4243,308.743781 C2037.63162,308.252034 2019.96363,306.029137 2019.29104,308.412604 C2015.10493,323.270385 2008.33387,342.438478 2014.27674,354.165135 C2032.40149,389.927176 2058.31621,421.745207 2076.40081,457.527319 C2086.585,477.683923 2087.32786,502.617497 2092.08617,524.29952 C2038.20884,492.772524 2011.62655,438.790759 1984.2261,385.441241 C1999.14351,357.090528 1952.37353,332.944752 1978.58941,302.662176 C1981.81181,298.93895 1975.84385,285.435982 1971.79828,277.683442 C1965.71487,266.027034 1957.56852,255.449458 1950.30055,244.41526 C1951.41986,242.94002 1952.52913,241.469797 1953.64844,239.994556" id="Fill-11"></path>
                        <path d="M1425.22348,440.443129 C1439.77447,468.808896 1453.36176,494.264324 1465.94518,520.20648 C1473.79037,536.363878 1483.9846,550.182969 1503.38425,547.332844 C1527.89357,543.725028 1538.3237,555.296133 1543.82487,576.57673 C1546.28936,586.10558 1550.76157,595.122612 1553.72798,602.829992 C1539.02139,602.829992 1523.72754,606.603397 1511.49045,602.092372 C1480.71201,590.732015 1484.56684,609.784698 1485.32977,627.929154 C1485.59078,634.296775 1485.36491,640.679448 1483.44753,647.463548 C1474.80929,608.836329 1465.82974,570.981855 1435.23199,542.791712 C1431.60805,539.44984 1430.65438,532.148905 1430.25283,526.559047 C1428.34047,499.643432 1427.03545,472.682657 1425.22348,440.443129" id="Fill-13"></path>
                        <path d="M1357.13898,27.1534599 C1357.13898,27.1534599 1357.42508,26.7419982 1357.41002,26.7570517 C1361.20462,52.2827291 1363.92509,75.5955455 1354.65442,102.987854 C1345.98606,128.618906 1333.24704,148.103121 1317.99334,168.565813 C1313.4107,174.707631 1313.63657,191.452114 1318.61071,196.530153 C1342.97949,221.383442 1348.43047,250.185759 1345.83046,283.343549 C1343.74243,310.008273 1345.40884,336.969048 1345.40884,363.503308 C1341.52891,355.198807 1334.88835,344.556 1331.57059,332.959806 C1327.28409,317.981597 1324.39798,302.341036 1323.15319,286.805848 C1320.86941,258.149048 1315.89025,231.956 1292.84155,210.815902 C1281.95968,200.825412 1282.72261,185.500973 1294.518,172.620216 C1332.20302,131.479066 1346.69378,80.1366774 1357.13898,27.1534599" id="Fill-15"></path>
                        <path d="M1247.50308,319.475906 C1239.97411,322.39628 1232.44012,325.316654 1217.77368,331.006868 C1219.03353,313.589996 1220.03739,299.64546 1221.24704,282.971226 C1211.73042,298.832572 1203.06709,313.273873 1194.40375,327.715175 C1196.20568,292.801146 1219.16403,272.258169 1244.34593,254.600442 C1247.60849,252.312314 1264.04674,261.555148 1267.98691,268.886191 C1278.09079,287.708053 1284.5908,308.456761 1292.53136,328.432724 L1287.11552,331.503633 C1276.73557,310.323392 1266.36065,289.143152 1253.7973,263.492029 C1244.93821,278.896752 1238.68916,289.760344 1232.06367,301.281271 C1265.04559,308.401565 1274.29619,339.351512 1254.93669,365.343847 C1250.45444,371.360219 1250.08301,382.735629 1251.89498,390.718989 C1258.64094,420.374337 1269.06104,449.317153 1273.99001,479.203321 C1276.15333,492.319916 1268.42359,507.067305 1264.6591,523.34513 C1261.25099,494.000888 1259.11276,468.530406 1254.97182,443.381066 C1253.29035,433.184845 1248.42664,422.983606 1242.94554,414.046859 C1228.93664,391.195683 1225.15207,370.125834 1245.74632,348.398651 C1251.34788,342.487652 1252.05058,331.945201 1255.00194,323.535326 L1247.50308,319.475906 Z" id="Fill-17"></path>
                        <path d="M1942.68826,171.121893 C1953.274,174.413586 1963.67904,178.698809 1974.5057,180.695904 C1983.76633,182.406982 1993.52388,181.267936 2003.02545,181.865057 C2006.81503,182.100895 2011.18183,182.64282 2014.16833,184.675039 C2041.67919,203.406581 2068.3167,223.477882 2096.52023,241.070378 C2111.6886,250.533996 2129.28632,256.209157 2146.02573,263.00831 C2153.37401,265.983881 2161.31457,267.489228 2168.07057,273.440369 C2151.85316,270.123586 2135.63073,266.806804 2115.44807,262.682152 C2119.34305,276.932775 2122.30947,287.76626 2125.76778,300.391109 C2096.0183,293.115262 2086.67735,245.757027 2047.27573,263.324433 C2039.10428,245.576385 2041.90506,218.289451 2010.34361,226.036973 C2008.25055,226.558827 2004.8073,220.39192 2001.59996,217.817775 C1981.93428,202.021661 1962.1632,186.361029 1942.42224,170.655235 L1942.68826,171.121893 Z" id="Fill-19"></path>
                        <path d="M1375.88813,711.214517 C1360.28308,685.713929 1343.91007,664.373118 1307.76096,669.370872 C1305.30652,658.241335 1302.88721,647.262333 1298.47021,627.221139 C1316.96137,637.392271 1329.30888,644.186406 1342.3591,651.361897 C1359.52516,633.418153 1355.97148,607.235141 1328.69151,588.322957 C1313.19688,577.579793 1310.19533,564.689 1311.93703,548.591816 C1347.13247,549.640542 1372.78117,567.363501 1368.98657,600.280435 C1364.58463,638.405872 1385.0283,673.023848 1375.88813,711.214517" id="Fill-21"></path>
                        <path d="M857.780871,539.020816 C878.907169,456.146414 846.221389,386.328392 801.659909,319.380567 C804.987715,317.739738 808.32054,316.098909 811.653366,314.463098 C833.693178,344.600157 857.730678,373.502831 877.306007,405.160291 C906.633865,452.598811 903.722662,498.617287 857.780871,539.020816" id="Fill-23"></path>
                        <path d="M1942.42324,170.656239 C1931.21511,188.976319 1920.00196,207.296399 1908.89422,225.445873 C1907.89537,222.696105 1903.13204,216.40877 1904.13089,211.24041 C1909.86294,181.720544 1882.01076,166.47639 1875.0289,142.29549 C1873.94974,138.562228 1855.4887,135.295624 1848.56707,138.772977 C1835.63229,145.276078 1825.26741,156.882308 1814.60136,165.733752 L1814.60136,137.940018 C1784.74146,159.02492 1759.78542,176.637487 1734.83441,194.255071 C1734.47302,193.547558 1734.11664,192.830009 1733.75525,192.117478 C1746.46918,177.204501 1756.44256,155.888779 1772.58969,148.969198 C1793.32449,140.077611 1808.3473,119.328904 1838.88481,124.396907 C1859.25821,127.778922 1882.25169,117.517469 1901.5108,134.924305 C1915.06797,147.167799 1928.94638,159.060045 1942.68424,171.122897 C1942.68926,171.122897 1942.42324,170.656239 1942.42324,170.656239" id="Fill-25"></path>
                        <path d="M1074.0476,496.114396 C1066.37307,477.001499 1058.53791,458.169601 1051.36531,439.096847 C1049.79929,434.916998 1048.54948,428.358701 1050.66261,425.423273 C1065.25376,405.186383 1080.77348,385.616865 1098.5268,362.549922 C1112.46544,387.232604 1122.54422,405.075991 1132.22146,422.216882 C1119.0558,423.396071 1104.14341,420.440572 1096.52911,426.562319 C1088.12176,433.316312 1085.57195,448.143986 1082.00823,459.920822 C1078.29394,472.194422 1076.4117,485.03002 1074.0476,496.114396" id="Fill-29"></path>
                        <path d="M2110.39412,651.66698 C2112.64779,650.618255 2114.90648,649.569529 2117.15012,648.53084 C2162.60001,654.236107 2185.37767,683.389672 2196.98734,734.190135 C2181.14136,720.280724 2169.8981,710.776963 2159.08649,700.816579 C2148.23975,690.831107 2137.68413,680.50944 2127.254,670.087417 C2121.37638,664.206526 2115.99567,657.82887 2110.39412,651.66698" id="Fill-33"></path>
                        <path d="M941.285711,596.421727 C950.496154,574.925364 963.917802,551.175996 970.683839,525.665373 C977.359528,500.526068 1000.89008,491.80007 1012.09821,471.914428 C996.051458,520.085551 985.525954,571.35769 941.285711,596.421727" id="Fill-35"></path>
                        <path d="M1764.53671,338.905427 C1783.29891,348.328903 1771.79464,384.321764 1805.04258,379.148386 L1805.04258,444.505561 C1775.20275,414.238038 1762.72473,379.675258 1764.53671,338.905427" id="Fill-37"></path>
                        <path d="M1605.94793,205.555716 C1607.37844,207.141348 1608.80894,208.726981 1610.23443,210.312614 C1625.52326,250.415074 1640.80708,290.522552 1656.09591,330.630029 C1653.40556,331.548291 1650.72022,332.471571 1648.03489,333.394851 C1612.9047,297.938898 1608.00585,252.231527 1605.94793,205.555716" id="Fill-39"></path>
                        <path d="M1399.91609,325.591631 C1405.04583,314.406898 1412.15318,303.678788 1414.81342,291.937077 C1418.1362,277.305098 1417.35319,261.795 1419.18022,246.761595 C1420.63582,234.7991 1422.67868,222.821551 1425.67522,211.155107 C1428.75707,199.142433 1433.30959,187.496061 1438.05787,173.165152 C1440.24127,177.756462 1443.42853,181.158547 1442.91154,183.858137 C1433.59569,232.932469 1442.1737,286.939323 1399.91609,325.591631" id="Fill-41"></path>
                        <path d="M1656.02363,594.148151 C1624.10079,564.196751 1594.34127,536.282589 1561.47479,505.443035 C1598.88877,510.87734 1652.13366,561.221181 1656.02363,594.148151" id="Fill-43"></path>
                        <path d="M1393.21029,64.2923922 C1396.05624,100.902446 1398.90721,137.517517 1401.75316,174.132588 C1381.59559,156.439736 1368.74614,138.521082 1381.20408,110.285779 C1386.81066,97.5806453 1382.15273,80.3444153 1382.15273,65.1654938 C1385.84193,64.8744599 1389.52611,64.583426 1393.21029,64.2923922" id="Fill-45"></path>
                        <path d="M1836.89515,745.221824 C1848.56506,741.473509 1862.37821,736.295113 1876.63809,733.138901 C1879.13269,732.581922 1887.28406,742.712912 1886.42575,744.19317 C1877.73732,759.141272 1867.71375,773.321646 1856.70137,789.739971 C1849.18745,772.844953 1844.26853,761.795701 1836.89515,745.221824" id="Fill-47"></path>
                        <path d="M1729.921,495.673329 C1686.73481,475.396297 1685.67072,441.290138 1695.03174,398.548302 C1707.34914,432.84012 1718.17078,462.972161 1729.921,495.673329" id="Fill-52"></path>
                        <path d="M2204.41292,304.564936 C2216.06777,313.255809 2225.70485,320.441335 2235.32688,327.611807 C2234.22263,328.474873 2232.70178,330.336487 2232.11452,330.07556 C2208.16234,319.50802 2190.06269,323.125872 2173.77502,346.303207 C2165.78929,357.678617 2148.79891,362.736585 2134.80004,367.854766 C2158.08464,346.689579 2181.36924,325.519374 2204.41292,304.564936" id="Fill-54"></path>
                        <path d="M1534.36397,434.95965 C1529.38481,409.930737 1490.10866,402.353821 1500.81486,369.331512 C1503.62568,367.931539 1506.4365,366.526548 1509.23727,365.126575 C1520.05892,387.179917 1530.88558,409.228242 1541.71224,431.276566 C1539.26784,432.505933 1536.81339,433.7353 1534.36397,434.95965" id="Fill-56"></path>
                        <path d="M1249.80946,193.878734 C1245.07624,209.780223 1240.34805,225.676693 1234.96734,243.745882 C1213.65031,221.120508 1216.05456,211.907781 1249.80946,193.878734" id="Fill-60"></path>
                        <path d="M1207.27528,346.642914 C1208.89652,366.67909 1210.51776,386.715266 1212.14401,406.756461 C1208.94169,407.142833 1205.73937,407.524188 1202.53705,407.905543 C1199.55557,387.984776 1196.5741,368.074045 1193.58761,348.153279 C1198.15016,347.646479 1202.71272,347.149714 1207.27528,346.642914" id="Fill-62"></path>
                        <path d="M1594.76239,273.845307 C1602.4319,306.69701 1610.10142,339.543694 1617.76591,372.395397 C1615.64274,372.87209 1613.51957,373.353801 1611.3964,373.84053 C1602.98403,340.883454 1594.56664,307.936413 1586.14924,274.984354 C1589.01527,274.602999 1591.89134,274.221644 1594.76239,273.845307" id="Fill-64"></path>
                        <path d="M1720.44604,373.770783 C1714.17189,358.882895 1707.89775,343.995007 1701.42283,328.630426 C1721.93677,324.917235 1725.8418,333.086255 1720.44604,373.770783" id="Fill-66"></path>
                    </g>
                </g>
            </g>
        </g>
    </g>
</svg>