<?xml version="1.0" encoding="UTF-8"?>
<svg width="150px" height="150px" viewBox="0 0 150 150" version="1.1" xmlns="http://www.w3.org/2000/svg" xmlns:xlink="http://www.w3.org/1999/xlink">
    <!-- Generator: Sketch 42 (36781) - http://www.bohemiancoding.com/sketch -->
    <title>icon-discuss-blue</title>
    <desc>Created with Sketch.</desc>
    <defs></defs>
    <g id="Symbols" stroke="none" stroke-width="1" fill="none" fill-rule="evenodd" stroke-linecap="round" stroke-linejoin="round">
        <g id="icon-discuss-blue" stroke="#35749C" stroke-width="5">
            <g id="icon" transform="translate(5.000000, 9.000000)">
                <polygon id="Stroke-1" points="103.284314 0.344345485 0.343137255 0.344345485 0.343137255 65.7699876 21.3884314 65.7699876 21.3884314 89.8741715 39.1169608 65.7699876 103.284314 65.7699876"></polygon>
                <path d="M20.9313725,29.9580572 C27.1057843,29.9580572 27.1057843,38.2223488 33.2795098,38.2223488 C39.4559804,38.2223488 39.4559804,29.9580572 45.632451,29.9580572 C51.8089216,29.9580572 51.8089216,38.2223488 57.9853922,38.2223488 C64.1632353,38.2223488 64.1632353,29.9580572 70.3410784,29.9580572 C76.5182353,29.9580572 76.5182353,38.2223488 82.6960784,38.2223488" id="Stroke-3"></path>
                <polyline id="Stroke-5" points="104.427647 56.817005 139.60402 56.817005 139.60402 112.177429 118.892941 112.177429 118.892941 132.573012 103.891667 112.177429 60.0490196 112.177429 60.0490196 66.4586785"></polyline>
                <path d="M78.8947353,82.9872618 C84.2126765,82.9872618 84.2126765,89.8741715 89.5306176,89.8741715 C94.8492451,89.8741715 94.8492451,82.9872618 100.167186,82.9872618 C105.4865,82.9872618 105.4865,89.8741715 110.805814,89.8741715 C116.125127,89.8741715 116.125127,82.9872618 121.443755,82.9872618" id="Stroke-7"></path>
            </g>
        </g>
    </g>
</svg>