<?xml version="1.0" encoding="UTF-8"?>
<svg width="184px" height="150px" viewBox="0 0 184 150" version="1.1" xmlns="http://www.w3.org/2000/svg" xmlns:xlink="http://www.w3.org/1999/xlink">
    <!-- Generator: Sketch 48.2 (47327) - http://www.bohemiancoding.com/sketch -->
    <title>icon-social-twitter-white</title>
    <desc>Created with Sketch.</desc>
    <defs></defs>
    <g id="Page-1" stroke="none" stroke-width="1" fill="none" fill-rule="evenodd">
        <g id="twitter-white" fill="#FFFFFF" fill-rule="nonzero">
            <path d="M0.0698753036,132.673484 C16.7141723,143.363797 36.484624,149.604701 57.7235578,149.604701 C127.557532,149.604701 167.008345,90.5169201 164.629945,37.5211284 C171.976859,32.2098165 178.355296,25.5763173 183.395883,18.0177384 C176.648073,21.0140944 169.400259,23.0402449 161.792081,23.9472743 C169.557917,19.2902872 175.521936,11.9031864 178.328269,3.10364668 C171.062436,7.42219001 163.012813,10.5584362 154.445166,12.2461428 C147.589248,4.92221822 137.814383,0.350970149 126.994464,0.350970149 C102.719466,0.350970149 84.8724553,23.0447575 90.354488,46.6184987 C59.0974442,45.0436067 31.3809735,30.043776 12.8357583,7.24619922 C2.97981193,24.1819287 7.72309875,46.3387185 24.4755048,57.5524909 C18.3087815,57.3584498 12.5069264,55.661718 7.43480778,52.8413527 C7.02939866,70.2960294 19.5114952,86.6180478 37.6017514,90.2642157 C32.30891,91.7037299 26.5115595,92.0331485 20.6196135,90.905003 C25.4034412,105.877758 39.2954607,116.766625 55.7505667,117.068967 C39.9441153,129.4876 20.0250134,135.029054 0.0698753036,132.673484" id="Fill-3"></path>
        </g>
    </g>
</svg>