<?xml version="1.0" encoding="UTF-8"?>
<svg width="150px" height="150px" viewBox="0 0 150 150" version="1.1" xmlns="http://www.w3.org/2000/svg" xmlns:xlink="http://www.w3.org/1999/xlink">
    <!-- Generator: Sketch 42 (36781) - http://www.bohemiancoding.com/sketch -->
    <title>icon-globe-blue</title>
    <desc>Created with Sketch.</desc>
    <defs></defs>
    <g id="Symbols" stroke="none" stroke-width="1" fill="none" fill-rule="evenodd">
        <g id="icon-globe-blue" stroke="#35749C" stroke-width="5">
            <g id="icon" transform="translate(16.000000, 5.000000)">
                <path d="M4.16453235,42.4837429 C14.8880716,16.5124996 44.5662284,4.17942327 70.4521892,14.9364099 C96.3404637,25.6951374 108.634444,55.4690744 97.9109049,81.4403177 C87.1885225,107.410981 57.5097873,119.744637 31.6220912,108.98707 C5.73555196,98.2295035 -6.55900686,68.4544059 4.16453235,42.4837429 Z" id="Stroke-1" stroke-linecap="round"></path>
                <path d="M71.4794833,108.38977 L45.0469049,97.405306 C40.8029539,95.6423603 38.787699,90.760312 40.545552,86.5026646 C42.302248,82.2450171 47.1680127,80.2232584 51.4131206,81.9873647 L74.7713363,91.694592" id="Stroke-3"></path>
                <path d="M78.7562078,81.7898313 C81.3522078,82.8680252 82.5171686,86.0196244 81.4193059,88.6768096 C80.3226,91.3328342 77.2788941,92.7359951 74.6811588,91.6572208" id="Stroke-5"></path>
                <path d="M85.6199902,55.7398996 C88.0141176,56.7351109 89.0547157,59.717263 88.0436176,62.1661212 C87.0319412,64.6149793 84.230598,66.0018919 81.8376275,65.0066806" id="Stroke-7"></path>
                <path d="M78.8460382,81.8272605 L67.7800676,77.2295583 C63.5372735,75.4642914 61.5220186,70.5845643 63.2798716,66.3274972 C65.0371461,62.0692694 69.9029108,60.0469304 74.1462833,61.8104564 L82.1378912,65.132083" id="Stroke-9"></path>
                <path d="M85.9583725,55.8810281 L57.0663039,43.8746595 C52.8211961,42.1111335 50.8065196,37.2296655 52.564951,32.9725984 C54.3228039,28.7143706 59.1879902,26.6926119 63.4307843,28.4555576 L97.8561275,42.7616477" id="Stroke-11"></path>
                <path d="M21.2361824,43.4354899 C18.6396039,42.357296 15.8128098,43.4888773 14.7166824,46.1454822 C13.6188196,48.8026674 14.5651333,52.2246855 17.1622902,53.3040401 L34.375251,60.456795 C38.6186235,62.2197407 40.6338784,67.101789 38.8760255,71.3588561 C37.1181725,75.6159233 32.2524078,77.637682 28.0090353,75.874156 L0.346133333,64.3790301" id="Stroke-13"></path>
                <path d="M21.2361824,43.4354899 L26.1545843,45.4793 C30.3973784,47.2434063 35.2631431,45.2210673 37.0215745,40.9640001 C38.7794275,36.7063527 36.7635941,31.8248847 32.5196431,30.061939 L16.5364275,23.4192661" id="Stroke-15"></path>
                <path d="M76.5000941,0.289974981 C110.451124,14.3981834 126.573741,53.4470255 112.510918,87.5070446 C98.4480941,121.568224 59.5254471,137.741133 25.5744176,123.634666" id="Stroke-17" stroke-linecap="round"></path>
                <path d="M50.4367863,128.577239 L50.4367863,139.602904" id="Stroke-19" stroke-linecap="round"></path>
            </g>
        </g>
    </g>
</svg>