<?xml version="1.0" encoding="UTF-8"?>
<svg width="150px" height="150px" viewBox="0 0 150 150" version="1.1" xmlns="http://www.w3.org/2000/svg" xmlns:xlink="http://www.w3.org/1999/xlink">
    <!-- Generator: Sketch 42 (36781) - http://www.bohemiancoding.com/sketch -->
    <title>icon-hand-blue</title>
    <desc>Created with Sketch.</desc>
    <defs></defs>
    <g id="Symbols" stroke="none" stroke-width="1" fill="none" fill-rule="evenodd" stroke-linecap="round">
        <g id="icon-hand-blue" stroke="#35749C" stroke-width="5">
            <g id="Icon" transform="translate(35.000000, 6.000000)">
                <path d="M50.8631514,137.088507 L50.8631514,103.695401 C82.7891303,103.695401 80.4395599,78.5004085 80.4395599,78.5004085 L80.4395599,66.6173662 C80.4395599,62.1891761 76.8493204,58.5966549 72.423412,58.5966549 C67.9980739,58.5966549 64.4106866,62.1891761 64.4106866,66.6173662 L64.4106866,18.250669 C64.4106866,13.8224789 60.8204472,10.2345211 56.3876937,10.2345211 C51.9680599,10.2345211 48.3761092,13.8224789 48.3761092,18.250669 L48.3761092,8.30135915 C48.3761092,3.87716197 44.7881514,0.285211268 40.3650951,0.285211268 C35.9340528,0.285211268 32.3460951,3.87716197 32.3460951,8.30135915 L32.3460951,18.250669 C32.3460951,13.8224789 28.7609894,10.2345211 24.331088,10.2345211 C19.9040387,10.2345211 16.3195035,13.8224789 16.3195035,18.250669 L16.3195035,33.1757746 C16.3195035,28.7458732 12.7269824,25.1584859 8.29765141,25.1584859 C3.8728838,25.1584859 0.285496479,28.7458732 0.285496479,33.1757746 L0.285496479,77.5478028 C0.285496479,88.3510352 5.64518662,97.8862183 13.8284683,103.695401 L13.8284683,127.139197" id="Stroke-1"></path>
                <path d="M48.375881,17.0424 L48.375881,54.1791887" id="Stroke-3"></path>
                <path d="M32.3480915,17.0424 L32.3480915,54.1791887" id="Stroke-5"></path>
                <path d="M16.3194465,21.9325183 L16.3194465,54.1790746" id="Stroke-7"></path>
                <path d="M64.4106866,58.1150472 L64.4106866,75.1147796" id="Stroke-9"></path>
            </g>
        </g>
    </g>
</svg>